<?xml version="1.0" encoding="utf-8"?>
<!-- Generator: Adobe Illustrator 26.0.1, SVG Export Plug-In . SVG Version: 6.00 Build 0)  -->
<svg version="1.1"
	 id="svg3916" xmlns:cc="http://creativecommons.org/ns#" xmlns:dc="http://purl.org/dc/elements/1.1/" xmlns:inkscape="http://www.inkscape.org/namespaces/inkscape" xmlns:ns1="http://sozi.baierouge.fr" xmlns:rdf="http://www.w3.org/1999/02/22-rdf-syntax-ns#" xmlns:sodipodi="http://sodipodi.sourceforge.net/DTD/sodipodi-0.dtd" xmlns:svg="http://www.w3.org/2000/svg"
	 xmlns="http://www.w3.org/2000/svg" xmlns:xlink="http://www.w3.org/1999/xlink" x="0px" y="0px" viewBox="0 0 414 271.1"
	 style="enable-background:new 0 0 414 271.1;" xml:space="preserve">
<style type="text/css">
	.st0{fill:none;stroke:#000000;stroke-width:1.9947;stroke-linecap:round;stroke-linejoin:round;}
	.st1{fill:none;stroke:#000000;stroke-width:6.7135;stroke-miterlimit:5.3708;}
</style>
<g id="layer1" transform="translate(-93.132 -25.499)">
	<g id="g3934" transform="translate(236.14 168.53)">
		<g id="layer1-8" transform="translate(0 -924.36)">
			<path id="path3160" class="st0" d="M127,988.4c0.2,34.8-27.9,63.2-62.7,63.4S1.2,1023.9,1,989.1c0-0.2,0-0.5,0-0.7
				c-0.2-34.8,27.9-63.2,62.7-63.4c34.8-0.2,63.2,27.9,63.4,62.7C127,987.9,127,988.1,127,988.4z"/>
		</g>
		<g id="g3768" transform="matrix(0 -1.3427 -1.3427 0 149.93 161.56)">
			<path id="rect2995" class="st1" d="M79.7,90.3H52.4V37.7h27.3"/>
			<path id="path3766" d="M95.4,59h-15V49l-15,15l15,15V69h15V59z"/>
		</g>
	</g>
</g>
</svg>
