<?xml version="1.0" encoding="utf-8"?>
<!-- Generator: Adobe Illustrator 26.0.1, SVG Export Plug-In . SVG Version: 6.00 Build 0)  -->
<svg version="1.1" id="Capa_1" xmlns="http://www.w3.org/2000/svg" xmlns:xlink="http://www.w3.org/1999/xlink" x="0px" y="0px"
	 viewBox="0 0 500.2 500.2" style="enable-background:new 0 0 500.2 500.2;" xml:space="preserve">
<style type="text/css">
	.st0{fill:#E7ECED;}
	.st1{fill:#8AC5D1;}
</style>
<path class="st0" d="M177.5,392.6L103,433.2c-4.7,2.8-8.5,5.7-12.3,8.5c43.4,36.8,100,58.5,161.4,58.5s117-21.7,160.4-57.6
	c-3.8-3.8-8.5-6.6-13.2-8.5l-80.2-39.6c-10.4-4.7-17-16-17-27.4V336c1.9-2.8,4.7-5.7,7.5-9.4c11.3-15.1,18.9-32.1,24.5-50
	c10.4-2.8,17.9-12.3,17.9-23.6v-33c0-7.5-2.8-14.2-8.5-18.9v-50c0,0,10.4-75.5-92.5-75.5S158.7,151,158.7,151v48.1
	c-4.7,4.7-8.5,11.3-8.5,18.9v33c0,8.5,4.7,17,11.3,20.8c8.5,36.8,30.2,62.3,30.2,62.3v30.2C193.6,376.5,187,386.9,177.5,392.6z"/>
<g>
	<path class="st1" d="M254.8,0C116.1-1.8,2.8,107.6,0,245.4c-0.9,78.3,34,149.1,88.7,195.3c3.8-2.8,7.5-5.7,12.3-8.5l74.5-40.6
		c9.4-5.7,16-16,16-26.4V335c0,0-21.7-26.4-30.2-62.3c-6.6-4.7-11.3-12.3-11.3-20.8v-33c0-7.5,2.8-14.2,8.5-18.9V151
		c0,0-10.4-75.5,92.5-75.5s92.5,75.5,92.5,75.5v48.1c4.7,4.7,8.5,11.3,8.5,18.9v33c0,11.3-7.5,20.8-17.9,23.6
		c-5.7,17.9-14.2,34.9-24.5,50c-2.8,3.8-5.7,7.5-7.5,9.4v31.1c0,11.3,6.6,21.7,17,27.4l80.2,39.6c4.7,2.8,9.4,5.7,13.2,8.5
		c51.9-43.4,86.8-110.4,87.8-185.9C502,116.1,392.6,2.9,254.8,0z"/>
</g>
</svg>
